<svg width="19" height="18" viewBox="0 0 19 18" fill="none" xmlns="http://www.w3.org/2000/svg">
<path d="M14.0042 3.29826C13.7987 3.29826 13.5978 3.35922 13.4268 3.47342C13.2559 3.58762 13.1227 3.74994 13.044 3.93985C12.9654 4.12976 12.9448 4.33873 12.9849 4.54034C13.025 4.74194 13.124 4.92713 13.2693 5.07248C13.4147 5.21783 13.5999 5.31682 13.8015 5.35692C14.0031 5.39702 14.2121 5.37644 14.402 5.29777C14.5919 5.21911 14.7542 5.0859 14.8684 4.91499C14.9826 4.74407 15.0436 4.54313 15.0436 4.33758C15.0436 4.06193 14.9341 3.79758 14.7392 3.60267C14.5442 3.40776 14.2799 3.29826 14.0042 3.29826ZM17.9883 5.39421C17.9714 4.67561 17.8368 3.96464 17.5899 3.2896C17.3697 2.71203 17.0269 2.18904 16.5852 1.75662C16.1563 1.31268 15.6321 0.972092 15.0522 0.760612C14.379 0.50612 13.6672 0.368454 12.9476 0.353549C12.0296 0.301583 11.7351 0.301583 9.37931 0.301583C7.02354 0.301583 6.72907 0.301583 5.81101 0.353549C5.09142 0.368454 4.37966 0.50612 3.7064 0.760612C3.12757 0.974233 2.60381 1.31453 2.17342 1.75662C1.72948 2.18549 1.38889 2.7097 1.17741 3.2896C0.922921 3.96285 0.785255 4.67462 0.770349 5.39421C0.718384 6.31227 0.718384 6.60674 0.718384 8.96251C0.718384 11.3183 0.718384 11.6128 0.770349 12.5308C0.785255 13.2504 0.922921 13.9622 1.17741 14.6354C1.38889 15.2153 1.72948 15.7395 2.17342 16.1684C2.60381 16.6105 3.12757 16.9508 3.7064 17.1644C4.37966 17.4189 5.09142 17.5566 5.81101 17.5715C6.72907 17.6234 7.02354 17.6234 9.37931 17.6234C11.7351 17.6234 12.0296 17.6234 12.9476 17.5715C13.6672 17.5566 14.379 17.4189 15.0522 17.1644C15.6321 16.9529 16.1563 16.6123 16.5852 16.1684C17.0289 15.7376 17.3719 15.2141 17.5899 14.6354C17.8368 13.9604 17.9714 13.2494 17.9883 12.5308C17.9883 11.6128 18.0402 11.3183 18.0402 8.96251C18.0402 6.60674 18.0402 6.31227 17.9883 5.39421ZM16.4293 12.4269C16.423 12.9767 16.3234 13.5214 16.1348 14.0378C15.9966 14.4147 15.7744 14.7553 15.4853 15.0338C15.2043 15.3201 14.8645 15.5417 14.4893 15.6834C13.9728 15.872 13.4281 15.9716 12.8783 15.9779C12.0122 16.0212 11.6918 16.0298 9.41396 16.0298C7.13613 16.0298 6.81568 16.0298 5.94958 15.9779C5.37874 15.9886 4.81032 15.9007 4.26936 15.718C3.91061 15.5691 3.58633 15.348 3.31666 15.0685C3.0292 14.7902 2.80986 14.4494 2.67575 14.0725C2.4643 13.5486 2.34702 12.9915 2.32932 12.4269C2.32932 11.5608 2.27735 11.2403 2.27735 8.96251C2.27735 6.68469 2.27735 6.36423 2.32932 5.49814C2.3332 4.93609 2.4358 4.3791 2.63245 3.85256C2.78492 3.487 3.01896 3.16113 3.31666 2.89986C3.57979 2.60207 3.90499 2.36557 4.26936 2.20699C4.79729 2.01648 5.35371 1.91692 5.91494 1.91252C6.78103 1.91252 7.10149 1.86055 9.37931 1.86055C11.6571 1.86055 11.9776 1.86055 12.8437 1.91252C13.3935 1.91882 13.9382 2.01839 14.4546 2.20699C14.8482 2.35306 15.2014 2.59053 15.4853 2.89986C15.7691 3.16591 15.9909 3.49117 16.1348 3.85256C16.3273 4.37996 16.427 4.93672 16.4293 5.49814C16.4726 6.36423 16.4813 6.68469 16.4813 8.96251C16.4813 11.2403 16.4726 11.5608 16.4293 12.4269ZM9.37931 4.51946C8.50093 4.52117 7.64276 4.7832 6.91325 5.27245C6.18373 5.7617 5.6156 6.45621 5.28064 7.26822C4.94569 8.08023 4.85893 8.97331 5.03135 9.83461C5.20376 10.6959 5.6276 11.4868 6.24932 12.1073C6.87103 12.7278 7.66273 13.1501 8.52436 13.3208C9.38599 13.4916 10.2789 13.4031 11.0903 13.0665C11.9016 12.73 12.595 12.1605 13.0828 11.43C13.5707 10.6996 13.831 9.8409 13.831 8.96251C13.8322 8.37799 13.7177 7.79901 13.4943 7.25887C13.2709 6.71873 12.9429 6.22809 12.5292 5.81517C12.1155 5.40226 11.6242 5.07521 11.0836 4.85284C10.543 4.63047 9.96383 4.51717 9.37931 4.51946ZM9.37931 11.8466C8.80889 11.8466 8.25128 11.6775 7.777 11.3605C7.30271 11.0436 6.93305 10.5932 6.71476 10.0662C6.49647 9.53921 6.43936 8.95931 6.55064 8.39985C6.66192 7.8404 6.93661 7.3265 7.33995 6.92315C7.7433 6.51981 8.2572 6.24512 8.81665 6.13384C9.37611 6.02256 9.95601 6.07967 10.483 6.29796C11.01 6.51625 11.4604 6.88591 11.7773 7.3602C12.0943 7.83448 12.2634 8.39209 12.2634 8.96251C12.2634 9.34126 12.1888 9.71629 12.0439 10.0662C11.8989 10.4161 11.6865 10.7341 11.4187 11.0019C11.1509 11.2697 10.8329 11.4821 10.483 11.6271C10.1331 11.772 9.75806 11.8466 9.37931 11.8466Z" fill="#565656"/>
</svg>
