<svg width="20" height="21" viewBox="0 0 20 21" fill="none" xmlns="http://www.w3.org/2000/svg">
<path d="M14.6389 12.975C14.4389 12.875 13.1389 12.275 12.9389 12.175C12.7389 12.075 12.5389 12.075 12.3389 12.275C12.1389 12.475 11.7389 13.075 11.5389 13.275C11.4389 13.475 11.2389 13.475 11.0389 13.375C10.3389 13.075 9.63894 12.675 9.03894 12.175C8.53894 11.675 8.03894 11.075 7.63894 10.475C7.53894 10.275 7.63894 10.075 7.73894 9.97501C7.83894 9.87501 7.93894 9.67501 8.13894 9.57501C8.23894 9.47501 8.33894 9.27501 8.33894 9.17501C8.43894 9.07501 8.43894 8.87501 8.33894 8.77501C8.23894 8.67501 7.73894 7.47501 7.53894 6.97501C7.43894 6.27501 7.23894 6.27501 7.03894 6.27501H6.53894C6.33894 6.27501 6.03894 6.47501 5.93894 6.57501C5.33894 7.17501 5.03894 7.87501 5.03894 8.67501C5.13894 9.57501 5.43894 10.475 6.03894 11.275C7.13894 12.875 8.53894 14.175 10.2389 14.975C10.7389 15.175 11.1389 15.375 11.6389 15.475C12.1389 15.675 12.6389 15.675 13.2389 15.575C13.9389 15.475 14.5389 14.975 14.9389 14.375C15.1389 13.975 15.1389 13.575 15.0389 13.175L14.6389 12.975ZM17.1389 3.87501C13.2389 -0.0249877 6.93894 -0.0249877 3.03894 3.87501C-0.16106 7.07501 -0.76106 11.975 1.43894 15.875L0.0389404 20.975L5.33894 19.575C6.83894 20.375 8.43894 20.775 10.0389 20.775C15.5389 20.775 19.9389 16.375 19.9389 10.875C20.0389 8.27501 18.9389 5.77501 17.1389 3.87501ZM14.4389 17.875C13.1389 18.675 11.6389 19.175 10.0389 19.175C8.53894 19.175 7.13894 18.775 5.83894 18.075L5.53894 17.875L2.43894 18.675L3.23894 15.675L3.03894 15.375C0.63894 11.375 1.83894 6.37501 5.73894 3.87501C9.63894 1.37501 14.6389 2.67501 17.0389 6.47501C19.4389 10.375 18.3389 15.475 14.4389 17.875Z" fill="#565656"/>
</svg>
