<svg width="25" height="25" viewBox="0 0 25 25" fill="none" xmlns="http://www.w3.org/2000/svg">
<path d="M12.6709 23.2C6.7409 23.2 1.9209 18.38 1.9209 12.45C1.9209 6.52001 6.7409 1.70001 12.6709 1.70001C18.6009 1.70001 23.4209 6.52001 23.4209 12.45C23.4209 18.38 18.6009 23.2 12.6709 23.2ZM12.6709 3.20001C7.5709 3.20001 3.4209 7.35001 3.4209 12.45C3.4209 17.55 7.5709 21.7 12.6709 21.7C17.7709 21.7 21.9209 17.55 21.9209 12.45C21.9209 7.35001 17.7709 3.20001 12.6709 3.20001Z" fill="#565656"/>
<path d="M12.6709 14.2C12.2609 14.2 11.9209 13.86 11.9209 13.45V8.45001C11.9209 8.04001 12.2609 7.70001 12.6709 7.70001C13.0809 7.70001 13.4209 8.04001 13.4209 8.45001V13.45C13.4209 13.86 13.0809 14.2 12.6709 14.2Z" fill="#565656"/>
<path d="M12.6709 17.45C12.5409 17.45 12.4109 17.42 12.2909 17.37C12.1709 17.32 12.0609 17.25 11.9609 17.16C11.8709 17.06 11.8009 16.96 11.7509 16.83C11.7009 16.71 11.6709 16.58 11.6709 16.45C11.6709 16.32 11.7009 16.19 11.7509 16.07C11.8009 15.95 11.8709 15.84 11.9609 15.74C12.0609 15.65 12.1709 15.58 12.2909 15.53C12.5309 15.43 12.8109 15.43 13.0509 15.53C13.1709 15.58 13.2809 15.65 13.3809 15.74C13.4709 15.84 13.5409 15.95 13.5909 16.07C13.6409 16.19 13.6709 16.32 13.6709 16.45C13.6709 16.58 13.6409 16.71 13.5909 16.83C13.5409 16.96 13.4709 17.06 13.3809 17.16C13.2809 17.25 13.1709 17.32 13.0509 17.37C12.9309 17.42 12.8009 17.45 12.6709 17.45Z" fill="#565656"/>
</svg>
