<svg width="25" height="25" viewBox="0 0 25 25" fill="none" xmlns="http://www.w3.org/2000/svg">
<path d="M22.6709 12.45V17.45C22.6709 20.45 20.6709 22.45 17.6709 22.45H7.6709C4.6709 22.45 2.6709 20.45 2.6709 17.45V12.45C2.6709 9.73001 4.3109 7.83001 6.8609 7.51001C7.1209 7.47001 7.3909 7.45001 7.6709 7.45001H17.6709C17.9309 7.45001 18.1809 7.46 18.4209 7.5C21.0009 7.8 22.6709 9.71001 22.6709 12.45Z" stroke="#565656" stroke-width="1.5" stroke-linecap="round" stroke-linejoin="round"/>
<path d="M18.4223 7.50001C18.1823 7.46001 17.9323 7.45002 17.6723 7.45002H7.6723C7.3923 7.45002 7.1223 7.47002 6.8623 7.51002C7.0023 7.23002 7.2023 6.97002 7.4423 6.73002L10.6923 3.47001C12.0623 2.11001 14.2823 2.11001 15.6523 3.47001L17.4023 5.24003C18.0423 5.87003 18.3823 6.67001 18.4223 7.50001Z" stroke="#565656" stroke-width="1.5" stroke-linecap="round" stroke-linejoin="round"/>
<path d="M22.6709 12.95H19.6709C18.5709 12.95 17.6709 13.85 17.6709 14.95C17.6709 16.05 18.5709 16.95 19.6709 16.95H22.6709" stroke="#565656" stroke-width="1.5" stroke-linecap="round" stroke-linejoin="round"/>
</svg>
