<svg width="25" height="25" viewBox="0 0 25 25" fill="none" xmlns="http://www.w3.org/2000/svg">
<path d="M12.6709 16.2C10.6009 16.2 8.9209 14.52 8.9209 12.45C8.9209 10.38 10.6009 8.70001 12.6709 8.70001C14.7409 8.70001 16.4209 10.38 16.4209 12.45C16.4209 14.52 14.7409 16.2 12.6709 16.2ZM12.6709 10.2C11.4309 10.2 10.4209 11.21 10.4209 12.45C10.4209 13.69 11.4309 14.7 12.6709 14.7C13.9109 14.7 14.9209 13.69 14.9209 12.45C14.9209 11.21 13.9109 10.2 12.6709 10.2Z" fill="#565656"/>
<path d="M15.8809 22.64C15.6709 22.64 15.4609 22.61 15.2509 22.56C14.6309 22.39 14.1109 22 13.7809 21.45L13.6609 21.25C13.0709 20.23 12.2609 20.23 11.6709 21.25L11.5609 21.44C11.2309 22 10.7109 22.4 10.0909 22.56C9.4609 22.73 8.8109 22.64 8.2609 22.31L6.5409 21.32C5.9309 20.97 5.4909 20.4 5.3009 19.71C5.1209 19.02 5.2109 18.31 5.5609 17.7C5.8509 17.19 5.9309 16.73 5.7609 16.44C5.5909 16.15 5.1609 15.98 4.5709 15.98C3.1109 15.98 1.9209 14.79 1.9209 13.33V11.57C1.9209 10.11 3.1109 8.92001 4.5709 8.92001C5.1609 8.92001 5.5909 8.75001 5.7609 8.46001C5.9309 8.17001 5.8609 7.71001 5.5609 7.20001C5.2109 6.59001 5.1209 5.87001 5.3009 5.19001C5.4809 4.50001 5.9209 3.93001 6.5409 3.58001L8.2709 2.59001C9.4009 1.92001 10.8909 2.31001 11.5709 3.46001L11.6909 3.66001C12.2809 4.68001 13.0909 4.68001 13.6809 3.66001L13.7909 3.47001C14.4709 2.31001 15.9609 1.92001 17.1009 2.60001L18.8209 3.59001C19.4309 3.94001 19.8709 4.51001 20.0609 5.20001C20.2409 5.89001 20.1509 6.60001 19.8009 7.21001C19.5109 7.72001 19.4309 8.18001 19.6009 8.47001C19.7709 8.76001 20.2009 8.93001 20.7909 8.93001C22.2509 8.93001 23.4409 10.12 23.4409 11.58V13.34C23.4409 14.8 22.2509 15.99 20.7909 15.99C20.2009 15.99 19.7709 16.16 19.6009 16.45C19.4309 16.74 19.5009 17.2 19.8009 17.71C20.1509 18.32 20.2509 19.04 20.0609 19.72C19.8809 20.41 19.4409 20.98 18.8209 21.33L17.0909 22.32C16.7109 22.53 16.3009 22.64 15.8809 22.64ZM12.6709 18.94C13.5609 18.94 14.3909 19.5 14.9609 20.49L15.0709 20.68C15.1909 20.89 15.3909 21.04 15.6309 21.1C15.8709 21.16 16.1109 21.13 16.3109 21.01L18.0409 20.01C18.3009 19.86 18.5009 19.61 18.5809 19.31C18.6609 19.01 18.6209 18.7 18.4709 18.44C17.9009 17.46 17.8309 16.45 18.2709 15.68C18.7109 14.91 19.6209 14.47 20.7609 14.47C21.4009 14.47 21.9109 13.96 21.9109 13.32V11.56C21.9109 10.93 21.4009 10.41 20.7609 10.41C19.6209 10.41 18.7109 9.97001 18.2709 9.20001C17.8309 8.43001 17.9009 7.42001 18.4709 6.44001C18.6209 6.18001 18.6609 5.87001 18.5809 5.57001C18.5009 5.27001 18.3109 5.03001 18.0509 4.87001L16.3209 3.88001C15.8909 3.62001 15.3209 3.77001 15.0609 4.21001L14.9509 4.40001C14.3809 5.39001 13.5509 5.95001 12.6609 5.95001C11.7709 5.95001 10.9409 5.39001 10.3709 4.40001L10.2609 4.20001C10.0109 3.78001 9.4509 3.63001 9.0209 3.88001L7.2909 4.88001C7.0309 5.03001 6.8309 5.28001 6.7509 5.58001C6.6709 5.88001 6.7109 6.19001 6.8609 6.45001C7.4309 7.43001 7.5009 8.44001 7.0609 9.21001C6.6209 9.98001 5.7109 10.42 4.5709 10.42C3.9309 10.42 3.4209 10.93 3.4209 11.57V13.33C3.4209 13.96 3.9309 14.48 4.5709 14.48C5.7109 14.48 6.6209 14.92 7.0609 15.69C7.5009 16.46 7.4309 17.47 6.8609 18.45C6.7109 18.71 6.6709 19.02 6.7509 19.32C6.8309 19.62 7.0209 19.86 7.2809 20.02L9.0109 21.01C9.2209 21.14 9.4709 21.17 9.7009 21.11C9.9409 21.05 10.1409 20.89 10.2709 20.68L10.3809 20.49C10.9509 19.51 11.7809 18.94 12.6709 18.94Z" fill="#565656"/>
</svg>
