<svg width="41" height="26" viewBox="0 0 41 26" fill="none" xmlns="http://www.w3.org/2000/svg">
<path d="M8.63756 5.37818C15.1607 -1.20313 25.7368 -1.20313 32.2599 5.37818L33.045 6.17025C33.3712 6.49932 33.3712 7.03284 33.045 7.3619L30.3594 10.0714C30.1964 10.236 29.932 10.236 29.7689 10.0714L28.6885 8.98143C24.1378 4.39015 16.7597 4.39015 12.209 8.98143L11.052 10.1487C10.8889 10.3132 10.6245 10.3132 10.4614 10.1487L7.77588 7.4392C7.44972 7.11013 7.44972 6.57661 7.77588 6.24755L8.63756 5.37818ZM37.814 10.9817L40.2041 13.3932C40.5303 13.7223 40.5303 14.2558 40.2041 14.5849L29.4267 25.4586C29.1006 25.7876 28.5718 25.7876 28.2456 25.4586C28.2456 25.4586 28.2456 25.4586 28.2456 25.4586L20.5964 17.7412C20.5149 17.6589 20.3827 17.6589 20.3012 17.7412C20.3012 17.7412 20.3012 17.7412 20.3012 17.7412L12.6522 25.4586C12.326 25.7876 11.7972 25.7876 11.4711 25.4586C11.4711 25.4586 11.4711 25.4586 11.4711 25.4586L0.693348 14.5847C0.367191 14.2557 0.367191 13.7222 0.693348 13.3931L3.08351 10.9816C3.40967 10.6525 3.93848 10.6525 4.26463 10.9816L11.9139 18.6991C11.9954 18.7813 12.1276 18.7813 12.2092 18.6991C12.2092 18.6991 12.2092 18.6991 12.2092 18.6991L19.858 10.9816C20.1842 10.6525 20.713 10.6525 21.0392 10.9816C21.0392 10.9816 21.0392 10.9816 21.0392 10.9816L28.6884 18.6991C28.77 18.7813 28.9022 18.7813 28.9837 18.6991L36.6328 10.9817C36.959 10.6527 37.4878 10.6527 37.814 10.9817Z" fill="#3B99FC"/>
</svg>
